<?xml version="1.0" encoding="utf-8"?>
<!-- Generator: Adobe Illustrator 18.0.0, SVG Export Plug-In . SVG Version: 6.00 Build 0)  -->
<!DOCTYPE svg PUBLIC "-//W3C//DTD SVG 1.1//EN" "http://www.w3.org/Graphics/SVG/1.1/DTD/svg11.dtd">
<svg version="1.1" id="Layer_1" xmlns="http://www.w3.org/2000/svg" xmlns:xlink="http://www.w3.org/1999/xlink" x="0px" y="0px"
	 viewBox="0 0 612 792" enable-background="new 0 0 612 792" xml:space="preserve">
<g>
	<g>
		<g>
			<path fill="#FFFFFF" d="M475.9,356h-28.5V202.6h28.5V356z"/>
		</g>
	</g>
	<g>
		<g>
			<path fill="#FFFFFF" d="M350.6,539.1h-60v-28.5h153.4v57.9c0,32.4-19.9,48-46.7,48c-26.7,0-46.7-15.6-46.7-48V539.1z
				 M397.3,587.5c14,0,20.4-7.7,20.4-20.2v-28.3h-40.8v28.3C376.9,579.8,383.2,587.5,397.3,587.5z"/>
		</g>
	</g>
	<g>
		<g>
			<path fill="#FFFFFF" d="M264.5,276.2v127.1h65.1v26.3H236V276.2H264.5z"/>
		</g>
	</g>
	<g>
		<path fill="#FFFFFF" d="M11.8,295.5h50.9v-55.2h26.3v55.2h65.7V324H11.9L11.8,295.5z"/>
	</g>
	<g>
		<g>
			<polygon fill="#FFFFFF" points="609.8,700 1.4,700 1.4,353.7 27.4,353.7 27.4,674 583.8,674 583.8,117.6 27.4,117.6 27.4,324 
				1.4,324 1.4,91.6 609.8,91.6 			"/>
		</g>
	</g>
</g>
</svg>
